<?xml version="1.0" encoding="utf-8"?>
<!-- Generator: Adobe Illustrator 15.1.0, SVG Export Plug-In . SVG Version: 6.00 Build 0)  -->
<!DOCTYPE svg PUBLIC "-//W3C//DTD SVG 1.1//EN" "http://www.w3.org/Graphics/SVG/1.1/DTD/svg11.dtd">
<svg version="1.1" id="Layer_1" xmlns="http://www.w3.org/2000/svg" xmlns:xlink="http://www.w3.org/1999/xlink" x="0px" y="0px"
	 width="422px" height="427px" viewBox="0 0 422 427" enable-background="new 0 0 422 427" xml:space="preserve">
<circle fill="#DAA520" cx="210.96" cy="214.383" r="135.739"/>
<path fill="#FFFFFF" d="M216.527,278.189c-18.479-7.729-27.244-20.023-45.634-52.015c-2.033-3.535-7.484-11.295-8.292-12.148
	c-0.806-0.854-1.775-1.565-2.915-2.134l-1.421-0.71v-0.57c4.548-0.284,8.449-1.277,11.7-2.985c3.25-1.703,5.907-3.832,7.974-6.392
	c2.062-2.56,3.564-5.328,4.503-8.314c0.937-2.984,1.405-5.899,1.405-8.74c0-2.558-0.496-5.353-1.491-8.386
	c-0.993-3.029-2.703-5.85-5.117-8.457c-2.417-2.606-5.709-4.785-9.876-6.538c-4.173-1.754-9.431-2.631-15.776-2.631h-32.264v99.485
	h12.935v-43.912h6.276c2.665,0,4.876,0.238,6.635,0.712c1.759,0.471,3.353,1.276,4.779,2.412c1.426,1.14,2.759,2.608,3.996,4.408
	c1.234,1.802,8.856,13.221,8.856,13.221c2.318,3.632,23.49,45.692,52.028,53.092c37.434,9.708,58.496-14.724,63.299-30.895
	l-8.922,0.024C264.707,266.693,245.307,290.231,216.527,278.189z M146.949,207.345h-14.691v-42.922h14.408
	c3.615,0,6.871,0.521,9.77,1.566c2.902,1.039,5.397,2.482,7.493,4.332c2.088,1.849,3.683,4.053,4.778,6.61
	c1.091,2.557,1.638,5.355,1.638,8.388c0,2.555-0.498,5.139-1.498,7.74c-0.999,2.61-2.497,4.976-4.492,7.108
	c-1.999,2.131-4.446,3.863-7.347,5.187C154.107,206.687,150.754,207.345,146.949,207.345z"/>
<path fill="#FCFCFC" stroke="#FCFCFC" stroke-width="1.499" stroke-miterlimit="10" d="M208.856,168.124l21.851,62.608l0.436,0.002
	l21.709-62.393l4.627,0.023l20.672,62.927l0.43,0.003l22.568-62.717l4.953,0.027l-25.848,75.176l-8.354-0.042l-18.809-58.934
	l-0.535-0.002l-19.85,58.744l-8.107-0.042l-25.643-75.429L208.856,168.124z"/>
</svg>
